<svg width="42" height="56" viewBox="0 0 42 56" fill="none" xmlns="http://www.w3.org/2000/svg">
<rect width="42" height="56" rx="20" fill="#009DAE"/>
<path d="M25.636 38.952L23.092 35.904C22.388 36.08 21.668 36.168 20.932 36.168C19.364 36.168 17.924 35.8 16.612 35.064C15.3 34.328 14.26 33.312 13.492 32.016C12.724 30.704 12.34 29.224 12.34 27.576C12.34 25.944 12.724 24.48 13.492 23.184C14.26 21.872 15.3 20.848 16.612 20.112C17.924 19.376 19.364 19.008 20.932 19.008C22.516 19.008 23.956 19.376 25.252 20.112C26.564 20.848 27.596 21.872 28.348 23.184C29.116 24.48 29.5 25.944 29.5 27.576C29.5 29.064 29.18 30.424 28.54 31.656C27.916 32.872 27.06 33.864 25.972 34.632L29.812 38.952H25.636ZM15.796 27.576C15.796 28.696 16.012 29.68 16.444 30.528C16.876 31.376 17.476 32.032 18.244 32.496C19.028 32.944 19.924 33.168 20.932 33.168C21.94 33.168 22.828 32.944 23.596 32.496C24.364 32.032 24.964 31.376 25.396 30.528C25.828 29.68 26.044 28.696 26.044 27.576C26.044 26.456 25.828 25.48 25.396 24.648C24.964 23.8 24.364 23.152 23.596 22.704C22.828 22.256 21.94 22.032 20.932 22.032C19.924 22.032 19.028 22.256 18.244 22.704C17.476 23.152 16.876 23.8 16.444 24.648C16.012 25.48 15.796 26.456 15.796 27.576Z" fill="white"/>
</svg>
