<svg width="142" height="56" viewBox="0 0 142 56" fill="none" xmlns="http://www.w3.org/2000/svg">
<rect width="42" height="56" rx="20" fill="#009DAE"/>
<path d="M25.636 38.952L23.092 35.904C22.388 36.08 21.668 36.168 20.932 36.168C19.364 36.168 17.924 35.8 16.612 35.064C15.3 34.328 14.26 33.312 13.492 32.016C12.724 30.704 12.34 29.224 12.34 27.576C12.34 25.944 12.724 24.48 13.492 23.184C14.26 21.872 15.3 20.848 16.612 20.112C17.924 19.376 19.364 19.008 20.932 19.008C22.516 19.008 23.956 19.376 25.252 20.112C26.564 20.848 27.596 21.872 28.348 23.184C29.116 24.48 29.5 25.944 29.5 27.576C29.5 29.064 29.18 30.424 28.54 31.656C27.916 32.872 27.06 33.864 25.972 34.632L29.812 38.952H25.636ZM15.796 27.576C15.796 28.696 16.012 29.68 16.444 30.528C16.876 31.376 17.476 32.032 18.244 32.496C19.028 32.944 19.924 33.168 20.932 33.168C21.94 33.168 22.828 32.944 23.596 32.496C24.364 32.032 24.964 31.376 25.396 30.528C25.828 29.68 26.044 28.696 26.044 27.576C26.044 26.456 25.828 25.48 25.396 24.648C24.964 23.8 24.364 23.152 23.596 22.704C22.828 22.256 21.94 22.032 20.932 22.032C19.924 22.032 19.028 22.256 18.244 22.704C17.476 23.152 16.876 23.8 16.444 24.648C16.012 25.48 15.796 26.456 15.796 27.576Z" fill="white"/>
<path d="M69.66 39.95C69.36 39.95 69.12 39.86 68.94 39.68C68.78 39.52 68.65 39.38 68.55 39.26L67.47 37.82C66.61 38.14 65.63 38.3 64.53 38.3C62.71 38.3 61.14 38 59.82 37.4C58.5 36.8 57.47 35.9 56.73 34.7C56.01 33.48 55.61 31.95 55.53 30.11C55.51 29.25 55.5 28.4 55.5 27.56C55.5 26.7 55.51 25.83 55.53 24.95C55.61 23.15 56.02 21.64 56.76 20.42C57.52 19.18 58.56 18.25 59.88 17.63C61.22 17.01 62.77 16.7 64.53 16.7C66.29 16.7 67.83 17.01 69.15 17.63C70.49 18.25 71.54 19.18 72.3 20.42C73.06 21.64 73.47 23.15 73.53 24.95C73.57 25.83 73.59 26.7 73.59 27.56C73.59 28.4 73.57 29.25 73.53 30.11C73.41 32.67 72.68 34.62 71.34 35.96L73.5 39.02C73.52 39.04 73.54 39.08 73.56 39.14C73.58 39.2 73.59 39.26 73.59 39.32C73.61 39.48 73.56 39.62 73.44 39.74C73.32 39.88 73.17 39.95 72.99 39.95H69.66ZM64.53 34.43C65.71 34.43 66.67 34.08 67.41 33.38C68.15 32.66 68.55 31.52 68.61 29.96C68.65 29.08 68.67 28.26 68.67 27.5C68.67 26.72 68.65 25.9 68.61 25.04C68.57 24 68.37 23.15 68.01 22.49C67.67 21.83 67.2 21.35 66.6 21.05C66 20.73 65.31 20.57 64.53 20.57C63.77 20.57 63.09 20.73 62.49 21.05C61.89 21.35 61.41 21.83 61.05 22.49C60.69 23.15 60.49 24 60.45 25.04C60.43 25.9 60.42 26.72 60.42 27.5C60.42 28.26 60.43 29.08 60.45 29.96C60.51 31.52 60.91 32.66 61.65 33.38C62.41 34.08 63.37 34.43 64.53 34.43ZM79.4438 38C79.2238 38 79.0438 37.93 78.9038 37.79C78.7638 37.65 78.6938 37.47 78.6938 37.25V25.94H76.3538C76.1338 25.94 75.9538 25.87 75.8138 25.73C75.6738 25.59 75.6038 25.41 75.6038 25.19V23.15C75.6038 22.93 75.6738 22.75 75.8138 22.61C75.9538 22.47 76.1338 22.4 76.3538 22.4H78.6938V21.32C78.6938 20.04 78.9338 18.99 79.4138 18.17C79.8938 17.35 80.5938 16.75 81.5138 16.37C82.4338 15.99 83.5638 15.8 84.9038 15.8H87.0938C87.3138 15.8 87.4938 15.87 87.6338 16.01C87.7738 16.15 87.8438 16.33 87.8438 16.55V18.59C87.8438 18.81 87.7738 18.99 87.6338 19.13C87.4938 19.27 87.3138 19.34 87.0938 19.34H85.0838C84.3438 19.34 83.8238 19.52 83.5238 19.88C83.2438 20.24 83.1038 20.77 83.1038 21.47V22.4H86.7938C87.0138 22.4 87.1938 22.47 87.3338 22.61C87.4738 22.75 87.5438 22.93 87.5438 23.15V25.19C87.5438 25.41 87.4738 25.59 87.3338 25.73C87.1938 25.87 87.0138 25.94 86.7938 25.94H83.1038V37.25C83.1038 37.47 83.0338 37.65 82.8938 37.79C82.7538 37.93 82.5838 38 82.3838 38H79.4438ZM96.7507 38.3C95.0907 38.3 93.7007 38.03 92.5807 37.49C91.4607 36.93 90.6007 36.14 90.0007 35.12C89.4207 34.1 89.1007 32.91 89.0407 31.55C89.0207 31.15 89.0107 30.7 89.0107 30.2C89.0107 29.68 89.0207 29.23 89.0407 28.85C89.1007 27.47 89.4407 26.28 90.0607 25.28C90.6807 24.26 91.5507 23.48 92.6707 22.94C93.7907 22.38 95.1507 22.1 96.7507 22.1C98.3307 22.1 99.6807 22.38 100.801 22.94C101.921 23.48 102.791 24.26 103.411 25.28C104.031 26.28 104.371 27.47 104.431 28.85C104.471 29.23 104.491 29.68 104.491 30.2C104.491 30.7 104.471 31.15 104.431 31.55C104.371 32.91 104.041 34.1 103.441 35.12C102.861 36.14 102.011 36.93 100.891 37.49C99.7707 38.03 98.3907 38.3 96.7507 38.3ZM96.7507 35C97.7307 35 98.4707 34.7 98.9707 34.1C99.4707 33.48 99.7407 32.58 99.7807 31.4C99.8007 31.1 99.8107 30.7 99.8107 30.2C99.8107 29.7 99.8007 29.3 99.7807 29C99.7407 27.84 99.4707 26.95 98.9707 26.33C98.4707 25.71 97.7307 25.4 96.7507 25.4C95.7707 25.4 95.0207 25.71 94.5007 26.33C94.0007 26.95 93.7307 27.84 93.6907 29C93.6707 29.3 93.6607 29.7 93.6607 30.2C93.6607 30.7 93.6707 31.1 93.6907 31.4C93.7307 32.58 94.0007 33.48 94.5007 34.1C95.0207 34.7 95.7707 35 96.7507 35ZM108.378 38C108.158 38 107.978 37.93 107.838 37.79C107.698 37.65 107.628 37.47 107.628 37.25V17.45C107.628 17.23 107.698 17.05 107.838 16.91C107.978 16.77 108.158 16.7 108.378 16.7H111.378C111.578 16.7 111.748 16.77 111.888 16.91C112.028 17.05 112.098 17.23 112.098 17.45V37.25C112.098 37.47 112.028 37.65 111.888 37.79C111.748 37.93 111.578 38 111.378 38H108.378ZM117.43 38C117.23 38 117.06 37.93 116.92 37.79C116.78 37.65 116.71 37.47 116.71 37.25V23.15C116.71 22.93 116.78 22.75 116.92 22.61C117.06 22.47 117.23 22.4 117.43 22.4H120.43C120.65 22.4 120.83 22.47 120.97 22.61C121.11 22.75 121.18 22.93 121.18 23.15V37.25C121.18 37.47 121.11 37.65 120.97 37.79C120.83 37.93 120.65 38 120.43 38H117.43ZM117.34 20C117.14 20 116.97 19.93 116.83 19.79C116.69 19.65 116.62 19.47 116.62 19.25V16.85C116.62 16.63 116.69 16.45 116.83 16.31C116.97 16.15 117.14 16.07 117.34 16.07H120.49C120.71 16.07 120.89 16.15 121.03 16.31C121.19 16.45 121.27 16.63 121.27 16.85V19.25C121.27 19.47 121.19 19.65 121.03 19.79C120.89 19.93 120.71 20 120.49 20H117.34ZM132.2 38.3C130.54 38.3 129.15 38.03 128.03 37.49C126.91 36.93 126.05 36.14 125.45 35.12C124.87 34.1 124.55 32.91 124.49 31.55C124.47 31.15 124.46 30.7 124.46 30.2C124.46 29.68 124.47 29.23 124.49 28.85C124.55 27.47 124.89 26.28 125.51 25.28C126.13 24.26 127 23.48 128.12 22.94C129.24 22.38 130.6 22.1 132.2 22.1C133.78 22.1 135.13 22.38 136.25 22.94C137.37 23.48 138.24 24.26 138.86 25.28C139.48 26.28 139.82 27.47 139.88 28.85C139.92 29.23 139.94 29.68 139.94 30.2C139.94 30.7 139.92 31.15 139.88 31.55C139.82 32.91 139.49 34.1 138.89 35.12C138.31 36.14 137.46 36.93 136.34 37.49C135.22 38.03 133.84 38.3 132.2 38.3ZM132.2 35C133.18 35 133.92 34.7 134.42 34.1C134.92 33.48 135.19 32.58 135.23 31.4C135.25 31.1 135.26 30.7 135.26 30.2C135.26 29.7 135.25 29.3 135.23 29C135.19 27.84 134.92 26.95 134.42 26.33C133.92 25.71 133.18 25.4 132.2 25.4C131.22 25.4 130.47 25.71 129.95 26.33C129.45 26.95 129.18 27.84 129.14 29C129.12 29.3 129.11 29.7 129.11 30.2C129.11 30.7 129.12 31.1 129.14 31.4C129.18 32.58 129.45 33.48 129.95 34.1C130.47 34.7 131.22 35 132.2 35Z" fill="white"/>
</svg>
